<?xml version="1.0"?>
<svg xmlns="http://www.w3.org/2000/svg" xmlns:xlink="http://www.w3.org/1999/xlink" version="1.1" viewBox="0 0 252 252" width="96px" height="96px"><g fill="none" fill-rule="nonzero" stroke="none" stroke-width="1" stroke-linecap="butt" stroke-linejoin="miter" stroke-miterlimit="10" stroke-dasharray="" stroke-dashoffset="0" font-family="none" font-weight="none" font-size="none" text-anchor="none" style="mix-blend-mode: normal"><path d="M0,252v-252h252v252z" fill="none"/><g id="&#x421;&#x43B;&#x43E;&#x439;_1" fill="#ffffff"><path d="M208.6875,63h-19.6875v-7.875c0,-4.34306 -3.53194,-7.875 -7.875,-7.875h-15.75c-4.34306,0 -7.875,3.53194 -7.875,7.875v7.875h-31.5v-19.6875c0,-10.85569 -8.83181,-19.6875 -19.6875,-19.6875h-63c-10.85569,0 -19.6875,8.83181 -19.6875,19.6875v55.125c0,10.85569 8.83181,19.6875 19.6875,19.6875h19.6875v90.5625c0,10.85569 8.83181,19.6875 19.6875,19.6875h126c10.85569,0 19.6875,-8.83181 19.6875,-19.6875v-126c0,-10.85569 -8.83181,-19.6875 -19.6875,-19.6875zM165.375,55.125h15.75v23.625h-15.75zM157.5,70.875v7.875c0,4.34306 3.53194,7.875 7.875,7.875h15.75c4.34306,0 7.875,-3.53194 7.875,-7.875v-7.875h19.6875c6.51262,0 11.8125,5.29988 11.8125,11.8125v19.6875h-94.89769c0.25987,-1.27181 0.39769,-2.59088 0.39769,-3.9375v-27.5625zM161.4375,200.8125h-31.5v-27.5625h31.5zM90.5625,133.875h31.5v31.5h-31.5zM90.5625,173.25h31.5v27.5625h-31.5zM129.9375,165.375v-31.5h31.5v31.5zM169.3125,133.875h31.5v31.5h-31.5zM122.0625,110.12794v0.12206h78.75v15.75h-110.25v-7.875h15.75c6.46144,0 12.159,-3.17363 15.75,-7.99706zM31.5,98.4375v-55.125c0,-6.51262 5.29988,-11.8125 11.8125,-11.8125h63c6.51263,0 11.8125,5.29988 11.8125,11.8125v55.125c0,6.51263 -5.29987,11.8125 -11.8125,11.8125h-63c-6.51262,0 -11.8125,-5.29987 -11.8125,-11.8125zM208.6875,220.5h-126c-6.51262,0 -11.8125,-5.29988 -11.8125,-11.8125v-90.5625h11.8125v90.5625h78.75h3.9375h3.9375v-35.4375h39.375v-63h11.8125v98.4375c0,6.51263 -5.29987,11.8125 -11.8125,11.8125z"/><rect x="43" y="15" transform="scale(3.9375,3.9375)" width="2" height="4"/><rect x="14" y="12" transform="scale(3.9375,3.9375)" width="2" height="12"/><path d="M70.875,94.5h23.625v-47.25h-23.625zM78.75,55.125h7.875v31.5h-7.875z"/><path d="M177.1875,208.6875v-23.625c0,-2.1735 1.764,-3.9375 3.9375,-3.9375h23.625z"/></g></g></svg>
