<?xml version="1.0"?>
<svg xmlns="http://www.w3.org/2000/svg" xmlns:xlink="http://www.w3.org/1999/xlink" version="1.1" viewBox="0 0 252 252" width="96px" height="96px"><g fill="none" fill-rule="nonzero" stroke="none" stroke-width="1" stroke-linecap="butt" stroke-linejoin="miter" stroke-miterlimit="10" stroke-dasharray="" stroke-dashoffset="0" font-family="none" font-weight="none" font-size="none" text-anchor="none" style="mix-blend-mode: normal"><path d="M0,252v-252h252v252z" fill="none"/><g id="Layer_1" fill="#ffffff"><path d="M195.91819,224.43356c-3.024,0 -6.048,-1.14975 -8.35144,-3.45319l-61.56675,-61.57069l-61.56675,61.56675c-4.60687,4.60294 -12.09994,4.60294 -16.70681,0l-16.70681,-16.70681c-4.60688,-4.60688 -4.60688,-12.09994 0,-16.70681l61.57069,-61.56281l-61.56675,-61.56675c-4.60687,-4.60687 -4.60687,-12.09994 0,-16.70681l16.70681,-16.70681c4.60294,-4.60688 12.096,-4.61081 16.70681,0l61.56281,61.57069l61.56675,-61.56675c4.60688,-4.61081 12.09994,-4.60687 16.70681,0l16.70681,16.70681c4.60688,4.60687 4.60688,12.09994 0,16.70681l-61.57069,61.56281l61.56675,61.56675c4.60688,4.60688 4.60688,12.09994 0,16.70681l-16.70681,16.70681c-2.30344,2.2995 -5.32744,3.45319 -8.35144,3.45319zM126,148.27444l67.13437,67.13438c1.53563,1.53562 4.03594,1.53169 5.57156,0l16.70681,-16.70681c1.53563,-1.53563 1.53563,-4.032 0,-5.57156l-67.13831,-67.13044l67.13438,-67.13438c1.53562,-1.53562 1.53562,-4.032 0,-5.57156l-16.70681,-16.70681c-1.53563,-1.53563 -4.03594,-1.53956 -5.57156,0l-67.13044,67.13831l-67.13438,-67.13438c-1.53562,-1.53563 -4.03594,-1.53169 -5.57156,0l-16.70681,16.70681c-1.53563,1.53562 -1.53563,4.032 0,5.57156l67.13831,67.13044l-67.13438,67.13437c-1.53563,1.53563 -1.53563,4.032 0,5.57156l16.70681,16.70681c1.53169,1.53169 4.032,1.53563 5.57156,0z"/><path d="M204.99019,55.36519l-8.35537,-8.35537l-70.63481,70.63875l-70.63481,-70.63875l-8.35537,8.35537l70.63875,70.63481l-70.63875,70.63481l8.35537,8.35537l70.63481,-70.63875l70.63481,70.63875l8.35537,-8.35537l-70.63875,-70.63481z"/></g></g></svg>
