<?xml version="1.0" encoding="UTF-8" standalone="no"?>
<!DOCTYPE svg PUBLIC "-//W3C//DTD SVG 1.1//EN" "http://www.w3.org/Graphics/SVG/1.1/DTD/svg11.dtd"><svg width="100%" height="100%" viewBox="0 0 200 160" version="1.1" xmlns="http://www.w3.org/2000/svg" xmlns:xlink="http://www.w3.org/1999/xlink" xml:space="preserve" xmlns:serif="http://www.serif.com/" style="fill-rule:evenodd;clip-rule:evenodd;stroke-linecap:round;stroke-linejoin:round;stroke-miterlimit:1.5;">
    <g>
        <rect x="0" y="0" width="200" height="160" style="fill:none;" />
        <g>
            <g opacity="0.65">
                <path d="M34.035,151.157l9.594,-20.193l9.462,20.193" style="fill:none;stroke:rgba(122, 124, 214, 1);stroke-width:5px;" />
                <path d="M85.578,151.157l9.594,-20.193l9.461,20.193" style="fill:none;stroke:rgba(122, 124, 214, 1);stroke-width:5px;" />
                <ellipse cx="154.338" cy="141.061" rx="10.319" ry="10.096" style="fill:none;stroke:rgba(122, 124, 214, 1);stroke-width:5px;stroke-linejoin:miter;" />
                <path d="M22.061,148.485c-1.839,1.658 -4.295,2.672 -6.99,2.672c-5.695,0 -10.319,-4.524 -10.319,-10.096c0,-5.573 4.624,-10.097 10.319,-10.097c2.739,0 5.231,1.047 7.08,2.754" style="fill:none;stroke:rgba(122, 124, 214, 1);stroke-width:5px;stroke-linejoin:miter;" />
                <path d="M57.987,130.964l22.65,0" style="fill:none;stroke:rgba(122, 124, 214, 1);stroke-width:5px;stroke-linejoin:miter;" />
                <path d="M69.34,130.964l0,20.193" style="fill:none;stroke:rgba(122, 124, 214, 1);stroke-width:5px;stroke-linejoin:miter;" />
                <path d="M184.929,130.964c5.695,0 10.319,4.524 10.319,10.097c0,5.572 -4.624,10.096 -10.319,10.096c-2.68,0 -7.919,0 -7.919,0l0.001,-20.193c0,0 6.468,0 7.918,0Z" style="fill:none;stroke:rgba(122, 124, 214, 1);stroke-width:5px;stroke-linejoin:miter;" />
                <path d="M117.672,130.964c0,0 7.541,0 8.448,0c3.563,0 6.455,2.83 6.455,6.316c0,3.485 -2.892,6.315 -6.455,6.315c-1.658,0 -8.475,0 -8.475,0l0,7.562" style="fill:none;stroke:rgba(122, 124, 214, 1);stroke-width:5px;stroke-linejoin:miter;" />
            </g>
        </g>
        <g>
            <g id="logo">
                <path d="M49.549,55.627c0,-0.929 -0.368,-1.819 -1.025,-2.475c-0.656,-0.657 -1.546,-1.025 -2.475,-1.025c-4.511,0 -12.308,0 -16.818,0c-1.932,0 -3.498,1.566 -3.498,3.498c0,0.001 0,0.002 0,0.004c0,1.932 1.566,3.498 3.498,3.498c4.51,0 12.307,0 16.818,0c0.929,0 1.819,-0.369 2.475,-1.025c0.657,-0.657 1.025,-1.547 1.025,-2.475c0,0 0,0 0,0Z" style="fill:rgba(122, 124, 214, 1);" />
                <path d="M150.451,55.627c0,-0.929 0.368,-1.819 1.025,-2.475c0.656,-0.657 1.546,-1.025 2.475,-1.025c4.51,0 12.306,0 16.816,0c0.929,0 1.819,0.368 2.475,1.025c0.657,0.656 1.025,1.546 1.025,2.475c0,0 0,0 0,0c0,0.928 -0.368,1.818 -1.025,2.475c-0.656,0.656 -1.546,1.025 -2.475,1.025c-4.51,0 -12.306,0 -16.816,0c-0.929,0 -1.819,-0.369 -2.475,-1.025c-0.657,-0.657 -1.025,-1.547 -1.025,-2.475c0,0 0,0 0,0Z" style="fill:rgba(122, 124, 214, 1);" />
                <path d="M52.124,68.561c-0.237,-0.884 -0.815,-1.637 -1.608,-2.095c-0.792,-0.457 -1.734,-0.581 -2.618,-0.345c-4.349,1.166 -11.919,3.194 -16.292,4.366c-0.896,0.24 -1.661,0.827 -2.125,1.631c-0.464,0.803 -0.59,1.759 -0.35,2.655c0.001,0.001 0.001,0.002 0.001,0.002c0.5,1.866 2.418,2.974 4.284,2.474c4.341,-1.163 11.835,-3.171 16.199,-4.341c0.909,-0.243 1.684,-0.838 2.155,-1.653c0.47,-0.815 0.598,-1.783 0.354,-2.692c0,-0.001 0,-0.001 0,-0.002Z" style="fill:rgba(122, 124, 214, 1);" />
                <path d="M147.722,68.56c0.5,-1.866 2.418,-2.974 4.284,-2.474c4.373,1.172 11.944,3.201 16.294,4.366c0.884,0.237 1.637,0.815 2.095,1.608c0.457,0.792 0.581,1.734 0.345,2.618c-0.001,0 -0.001,0.001 -0.001,0.002c-0.243,0.909 -0.838,1.683 -1.653,2.154c-0.815,0.47 -1.783,0.598 -2.692,0.354c-4.364,-1.169 -11.856,-3.176 -16.198,-4.34c-0.896,-0.24 -1.661,-0.826 -2.125,-1.63c-0.464,-0.804 -0.59,-1.76 -0.35,-2.656c0.001,-0.001 0.001,-0.002 0.001,-0.002Z" style="fill:rgba(122, 124, 214, 1);" />
                <path d="M59.742,79.339c-0.471,-0.815 -1.246,-1.409 -2.155,-1.653c-0.909,-0.243 -1.877,-0.116 -2.692,0.355c-3.927,2.267 -10.68,6.166 -14.565,8.409c-0.793,0.458 -1.371,1.211 -1.608,2.095c-0.237,0.884 -0.113,1.825 0.345,2.618c0,0 0.001,0.001 0.001,0.002c0.47,0.814 1.245,1.409 2.154,1.653c0.909,0.243 1.878,0.116 2.693,-0.355c3.926,-2.267 10.679,-6.166 14.565,-8.409c0.792,-0.458 1.371,-1.211 1.607,-2.095c0.237,-0.884 0.113,-1.825 -0.344,-2.618c-0.001,0 -0.001,-0.001 -0.001,-0.002Z" style="fill:rgba(122, 124, 214, 1);" />
                <path d="M140.283,79.296c0.966,-1.673 3.106,-2.246 4.779,-1.28c3.905,2.255 10.658,6.154 14.565,8.409c0.804,0.464 1.391,1.229 1.631,2.125c0.24,0.897 0.114,1.852 -0.35,2.656c0,0.001 -0.001,0.001 -0.001,0.002c-0.966,1.673 -3.105,2.246 -4.778,1.28c-3.906,-2.255 -10.659,-6.154 -14.566,-8.409c-0.804,-0.464 -1.39,-1.229 -1.63,-2.125c-0.241,-0.897 -0.115,-1.852 0.349,-2.656c0.001,-0.001 0.001,-0.001 0.001,-0.002Z" style="fill:rgba(122, 124, 214, 1);" />
                <path d="M71.452,87.344c-0.647,-0.647 -1.524,-1.01 -2.439,-1.01c-0.915,0 -1.793,0.363 -2.44,1.01c-3.172,3.173 -8.686,8.687 -11.892,11.893c-0.666,0.665 -1.04,1.568 -1.04,2.509c0,0.941 0.374,1.843 1.04,2.509c0,0 0.001,0.001 0.001,0.001c0.647,0.647 1.525,1.011 2.44,1.011c0.915,0 1.792,-0.364 2.439,-1.011c3.173,-3.172 8.686,-8.686 11.893,-11.893c0.665,-0.665 1.039,-1.567 1.039,-2.508c0,-0.941 -0.374,-1.844 -1.039,-2.509c-0.001,-0.001 -0.001,-0.001 -0.002,-0.002Z" style="fill:rgba(122, 124, 214, 1);" />
                <path d="M128.514,87.378c1.366,-1.366 3.581,-1.366 4.947,0c3.189,3.19 8.704,8.705 11.894,11.894c1.366,1.366 1.366,3.581 0,4.947c-0.001,0.001 -0.001,0.001 -0.002,0.002c-0.656,0.656 -1.546,1.025 -2.475,1.025c-0.928,0 -1.818,-0.369 -2.474,-1.025c-3.19,-3.19 -8.704,-8.704 -11.893,-11.893c-1.366,-1.366 -1.366,-3.581 0,-4.947c0.001,-0.001 0.002,-0.002 0.003,-0.003Z" style="fill:rgba(122, 124, 214, 1);" />
                <path d="M99.967,12.329c32.203,0 58.348,19.569 58.348,43.672c0,24.103 -26.145,43.671 -58.348,43.671c-32.203,0 -58.347,-19.568 -58.347,-43.671c0,-24.103 26.144,-43.672 58.347,-43.672Zm-0.08,22.805c11.381,0.036 22.915,-0.05 34.044,2.746c9.312,2.338 17.199,10.338 16.354,20.706c-1.041,12.78 -11.015,24.059 -22.439,28.843c-16.274,6.816 -35.273,7.154 -51.784,1.651c-14.977,-4.992 -28.067,-19.198 -26.411,-34.634c1.012,-9.445 10.917,-15.853 20.559,-17.365c9.78,-1.534 19.775,-1.958 29.677,-1.947Z" style="fill:rgba(122, 124, 214, 1);" />
                <path d="M50.19,36.941c0,0 -0.096,-18.153 -0.153,-29.008c-0.007,-1.328 0.787,-2.528 2.011,-3.042c1.224,-0.514 2.637,-0.239 3.58,0.696c6.256,6.206 15.487,15.363 15.487,15.363l-20.925,15.991Z" style="fill:rgba(122, 124, 214, 1);" />
                <path d="M149.744,36.941c0,0 0.096,-18.153 0.153,-29.008c0.007,-1.328 -0.787,-2.528 -2.011,-3.042c-1.224,-0.514 -2.637,-0.239 -3.579,0.696c-6.257,6.206 -15.488,15.363 -15.488,15.363l20.925,15.991Z" style="fill:rgba(122, 124, 214, 1);" />
                <path d="M98.842,40.134c-10.51,0.032 -21.148,-0.024 -31.418,2.566c-7.479,1.886 -13.914,7.558 -12.665,16.897c1.216,9.088 7.958,17.078 15.412,21.418c8.89,5.177 19.51,6.742 29.958,6.853c18.191,0.194 36.965,-7.258 43.402,-22.576c2.748,-6.539 2.271,-14.661 -3.232,-18.981c-4.402,-3.456 -10.229,-4.205 -15.687,-4.835c-8.537,-0.985 -17.149,-1.35 -25.77,-1.342Zm3.42,29.636c0.127,1.207 0.763,2.257 2.052,2.271c0.005,0 0.028,0 0.033,0c1.389,-0.016 2.021,-1.234 2.072,-2.558c0.057,-1.444 0.839,-2.531 2.209,-2.533c1.234,-0.001 2.283,1.162 2.31,2.234c0.103,4.125 -2.044,7.338 -6.508,7.292c-0.034,0 -0.165,0 -0.199,0c-1.779,0.019 -3.191,-0.481 -4.238,-1.35c-1.048,0.869 -2.459,1.369 -4.239,1.35c-0.033,0 -0.164,0 -0.198,0c-4.464,0.046 -6.612,-3.167 -6.508,-7.292c0.027,-1.072 1.075,-2.235 2.309,-2.234c1.37,0.002 2.153,1.089 2.209,2.533c0.052,1.324 0.683,2.542 2.073,2.558c0.005,0 0.028,0 0.033,0c1.288,-0.014 1.925,-1.064 2.052,-2.271c-0.006,-0.194 -0.006,-0.389 -0.001,-0.586c0.009,-0.374 0.143,-0.758 0.364,-1.1c0.361,-0.692 0.994,-1.133 1.866,-1.134c0.013,0 0.027,0 0.04,0c0.013,0 0.026,0 0.039,0c0.872,0.001 1.506,0.442 1.866,1.134c0.222,0.342 0.355,0.726 0.365,1.1c0.004,0.197 0.004,0.392 -0.001,0.586Zm29.618,-13.282c0,-1.55 -0.615,-3.036 -1.711,-4.131c-1.095,-1.096 -2.581,-1.711 -4.131,-1.711c0,0 -0.001,0 -0.001,0c-1.55,0 -3.036,0.615 -4.131,1.711c-1.096,1.095 -1.711,2.581 -1.711,4.131c0,2.745 0,6.009 0,8.754c0,1.55 0.615,3.036 1.711,4.131c1.095,1.096 2.581,1.711 4.131,1.711c0,0 0.001,0 0.001,0c1.55,0 3.036,-0.615 4.131,-1.711c1.096,-1.095 1.711,-2.581 1.711,-4.131c0,-2.745 0,-6.009 0,-8.754Zm-52.14,0c0,-1.55 -0.616,-3.036 -1.711,-4.131c-1.096,-1.096 -2.582,-1.711 -4.131,-1.711c-0.001,0 -0.002,0 -0.002,0c-1.55,0 -3.035,0.615 -4.131,1.711c-1.096,1.095 -1.711,2.581 -1.711,4.131c0,2.745 0,6.009 0,8.754c0,1.55 0.615,3.036 1.711,4.131c1.096,1.096 2.581,1.711 4.131,1.711c0,0 0.001,0 0.002,0c1.549,0 3.035,-0.615 4.131,-1.711c1.095,-1.095 1.711,-2.581 1.711,-4.131c0,-2.745 0,-6.009 0,-8.754Z" style="fill:rgba(122, 124, 214, 1);fill-opacity:0.65;" />
                <path d="M77.09,55.698c0,-0.524 -0.209,-1.026 -0.579,-1.397c-0.371,-0.37 -0.873,-0.579 -1.397,-0.579c0,0 -0.001,0 -0.001,0c-0.524,0 -1.026,0.209 -1.397,0.579c-0.371,0.371 -0.579,0.873 -0.579,1.397c0,0.917 0,2.004 0,2.921c0,0.524 0.208,1.027 0.579,1.398c0.371,0.37 0.873,0.578 1.397,0.578c0,0 0.001,0 0.001,0c0.524,0 1.026,-0.208 1.397,-0.578c0.37,-0.371 0.579,-0.874 0.579,-1.398c0,-0.917 0,-2.004 0,-2.921Z" style="fill:rgba(122, 124, 214, 1);" />
                <path d="M129.23,55.698c0,-0.524 -0.208,-1.026 -0.578,-1.397c-0.371,-0.37 -0.874,-0.579 -1.398,-0.579c0,0 0,0 0,0c-0.524,0 -1.027,0.209 -1.397,0.579c-0.371,0.371 -0.579,0.873 -0.579,1.397c0,0.917 0,2.004 0,2.921c0,0.524 0.208,1.027 0.579,1.398c0.37,0.37 0.873,0.578 1.397,0.578c0,0 0,0 0,0c0.524,0 1.027,-0.208 1.398,-0.578c0.37,-0.371 0.578,-0.874 0.578,-1.398c0,-0.917 0,-2.004 0,-2.921Z" style="fill:rgba(122, 124, 214, 1);" />
            </g>
        </g>
    </g>
</svg>