<?xml version="1.0"?>
<svg xmlns="http://www.w3.org/2000/svg" xmlns:xlink="http://www.w3.org/1999/xlink" version="1.1" viewBox="0 0 252 252" width="96px" height="96px"><g fill="none" fill-rule="nonzero" stroke="none" stroke-width="1" stroke-linecap="butt" stroke-linejoin="miter" stroke-miterlimit="10" stroke-dasharray="" stroke-dashoffset="0" font-family="none" font-weight="none" font-size="none" text-anchor="none" style="mix-blend-mode: normal"><path d="M0,252v-252h252v252z" fill="none"/><g id="Layer_1" fill="#ffffff"><path d="M194.83538,96.0435l-38.87888,-38.87887l16.6635,-16.6635c1.53563,-1.53563 4.02019,-1.53563 5.55581,0l33.327,33.327c1.53563,1.53562 1.53563,4.02019 0,5.55581z"/><path d="M199.61944,102.37106l17.43525,-17.43525c4.59506,-4.59506 4.59506,-12.06844 0,-16.6635l-33.327,-33.327c-4.59506,-4.59506 -12.06844,-4.59506 -16.6635,0l-17.43525,17.43525c-2.6145,-0.68906 -5.5125,-0.04331 -7.56,2.00419l-5.55581,5.55581c-2.0475,2.0475 -2.69325,4.9455 -2.00419,7.56l-90.41681,90.41681l-2.00025,2.00025l-0.7875,0.7875l-9.34369,39.24506c-1.35056,5.67788 0.30712,11.529 4.43362,15.6555c4.1265,4.1265 9.97763,5.78419 15.6555,4.42969l39.24506,-9.34369l0.7875,-0.7875l2.00025,-2.00025l90.42075,-90.42075c2.6145,0.68906 5.5125,0.04331 7.56,-2.00419l5.55581,-5.55581c2.04356,-2.03963 2.68931,-4.93763 2.00025,-7.55213zM186.50756,109.935l-44.43862,-44.43862l5.55581,-5.55581l44.43469,44.43469zM92.37375,198.50513c-1.1025,-4.18556 -2.68537,-8.17819 -4.71712,-11.94637l82.1835,-82.1835l8.33175,8.33175zM58.73175,210.37275c-0.4725,-4.22887 -2.28375,-8.32781 -5.53219,-11.57231c-3.24844,-3.24844 -7.34344,-5.05969 -11.57231,-5.53219l2.74838,-11.54081c6.49294,1.04737 12.49369,4.07925 17.15569,8.74125c4.662,4.662 7.69388,10.66669 8.74125,17.15569zM67.08713,184.91288c-5.69756,-5.69756 -12.99769,-9.43425 -20.89238,-10.82812l1.82306,-7.65056c9.37913,1.73644 17.84869,6.15037 24.62512,12.92288c6.77644,6.7725 11.18644,15.246 12.92288,24.62512l-7.65056,1.82306c-1.39781,-7.89469 -5.13056,-15.19481 -10.82812,-20.89237zM78.19481,173.80519c-1.87819,-1.87819 -3.88631,-3.57131 -5.97319,-5.1345l80.95894,-80.95894l11.10769,11.10769l-80.95894,80.95894c-1.56319,-2.08688 -3.25631,-4.095 -5.1345,-5.97319zM65.44125,164.34338c-3.76819,-2.03175 -7.76081,-3.61463 -11.94638,-4.71713l85.79813,-85.79812l8.33175,8.33175zM172.62,40.50113c1.53169,-1.53169 4.02412,-1.53169 5.55581,0l33.327,33.327c1.53169,1.53169 1.53169,4.02412 0,5.55581l-16.6635,16.6635l-38.87887,-38.87887z"/></g></g></svg>
